# xmcd
#
# Track frame offsets: 
#        150
#        35185
#        56357
#        80662
#        100322
#        118767
#        147865
#
# Disc length: 2276 seconds
#
# Revision: 5
# Processed by: cddbd v1.5.2PL0 Copyright (c) Steve Scherf et al.
# Submitted via: ExactAudioCopy v0.95a5
#
DISCID=6008e207
DTITLE=Deák "Bill" Gyula - Rossz vér
DYEAR=1984
DGENRE=Bluesrock
TTITLE0=Rossz vér
TTITLE1=Õrülj meg, kicsi!
TTITLE2=Ne szeress engem!
TTITLE3=Mindenem a tévé
TTITLE4=A felszarvazottak balladája
TTITLE5=Középeurópai hobo blues III.
TTITLE6=Ez a helyzet
EXTD=
EXTT0=
EXTT1=
EXTT2=
EXTT3=
EXTT4=
EXTT5=
EXTT6=
PLAYORDER=
